<svg xmlns="http://www.w3.org/2000/svg" version="1.0" viewBox="-100 -10 200 200"><path fill="#999" fill-rule="evenodd" d="M-1.28 1.3C-19.75 1-34.51 18.15-38.04 36.51c-3.42 16.86.17 34.57 5.93 50.37 2.29 8.23 11.17 12.93 9.55 22.29 1 10.16-7.28 16.46-14.26 21.38-12.25 8.52-28.8 7.32-39.52 18.84-7.9 7.44-8.96 19.2-12.37 29.16 59.14 0 118.28.12 177.39.12-4.08-11.04-5.28-24.72-15.48-31.8-12.6-10.08-30.48-7.32-42.48-18.96-7.58-4.68-13.55-13.38-10.82-23.24 1.82-8.16 9.24-13.54 11.06-22.01 6.6-19.9 9.48-43.78-1.74-62.5C22.82 9 11.2 1.1-1.28 1.3z"/></svg>